<svg width="32" height="32" viewBox="0 0 32 32" fill="none" xmlns="http://www.w3.org/2000/svg">
<g clip-path="url(#clip0_29406_2)">
<path d="M19.7334 8.53317C20.4278 8.53317 21.0144 8.98065 21.2352 9.59982H26.7648C26.9856 8.98065 27.5723 8.53317 28.2667 8.53317C29.1488 8.53317 29.8667 9.25102 29.8667 10.1332C29.8667 11.0153 29.1488 11.7331 28.2667 11.7331C27.5723 11.7331 26.9856 11.2857 26.7648 10.6665H21.2347C21.0139 11.2857 20.4272 11.7331 19.7328 11.7331C18.8507 11.7331 18.1328 11.0153 18.1328 10.1332C18.1328 9.25102 18.8512 8.53317 19.7334 8.53317ZM28.2667 10.6665C28.5605 10.6665 28.8 10.4276 28.8 10.1332C28.8 9.83877 28.5605 9.59982 28.2667 9.59982C27.9728 9.59982 27.7334 9.83877 27.7334 10.1332C27.7334 10.4276 27.9728 10.6665 28.2667 10.6665ZM19.7334 10.6665C20.0272 10.6665 20.2667 10.4276 20.2667 10.1332C20.2667 9.83877 20.0272 9.59982 19.7334 9.59982C19.4395 9.59982 19.2 9.83877 19.2 10.1332C19.2 10.4276 19.4395 10.6665 19.7334 10.6665Z" fill="#00B2FF"/>
<path d="M15.4667 11.8313V8.53319C15.4667 8.39134 15.5227 8.25589 15.6229 8.15617L17.7563 6.02282C17.856 5.92257 17.992 5.8666 18.1333 5.8666H19.8315C20.0523 5.24739 20.6389 4.79993 21.3333 4.79993C22.2155 4.79993 22.9333 5.51779 22.9333 6.39989C22.9333 7.28204 22.2155 7.99989 21.3333 7.99989C20.6389 7.99989 20.0523 7.55242 19.8315 6.93324H18.3541L16.5333 8.75399V11.8313C17.1525 12.0521 17.6 12.6387 17.6 13.3331C17.6 14.2152 16.8821 14.9331 16 14.9331C15.1179 14.9331 14.4 14.2152 14.4 13.3331C14.4 12.6387 14.8475 12.0521 15.4667 11.8313ZM21.3333 6.93324C21.6272 6.93324 21.8667 6.69429 21.8667 6.39989C21.8667 6.10549 21.6272 5.8666 21.3333 5.8666C21.0395 5.8666 20.8 6.10549 20.8 6.39989C20.8 6.69429 21.0395 6.93324 21.3333 6.93324ZM16 13.8664C16.2939 13.8664 16.5333 13.6275 16.5333 13.3331C16.5333 13.0387 16.2939 12.7998 16 12.7998C15.7061 12.7998 15.4667 13.0387 15.4667 13.3331C15.4667 13.6275 15.7061 13.8664 16 13.8664Z" fill="#00B2FF"/>
<path d="M5.86664 13.8664C6.11304 13.8664 6.34344 13.9267 6.55202 14.027L7.46664 13.1123V7.99988C7.46664 7.85798 7.52267 7.72253 7.62292 7.62281L12.9605 2.28529C12.8603 2.07677 12.8 1.84637 12.8 1.59997C12.8 0.717853 13.5178 0 14.4 0C15.2821 0 16 0.717853 16 1.59997C16 2.48209 15.2821 3.19995 14.4 3.19995C14.1536 3.19995 13.9232 3.13968 13.7147 3.03942L8.53334 8.22068V13.3331C8.53334 13.475 8.47732 13.6104 8.37707 13.7102L7.30612 14.7811C7.40642 14.9896 7.46664 15.22 7.46664 15.4664C7.46664 16.3485 6.74879 17.0664 5.86664 17.0664C4.98453 17.0664 4.26666 16.3485 4.26666 15.4664C4.26666 14.5843 4.98453 13.8664 5.86664 13.8664ZM14.4 2.1333C14.6939 2.1333 14.9333 1.89437 14.9333 1.59997C14.9333 1.30558 14.6939 1.06665 14.4 1.06665C14.1061 1.06665 13.8666 1.30558 13.8666 1.59997C13.8666 1.89437 14.1061 2.1333 14.4 2.1333ZM5.86664 15.9997C6.16052 15.9997 6.39999 15.7608 6.39999 15.4664C6.39999 15.172 6.16052 14.9331 5.86664 14.9331C5.5728 14.9331 5.33333 15.172 5.33333 15.4664C5.33333 15.7608 5.5728 15.9997 5.86664 15.9997Z" fill="#00B2FF"/>
<path d="M1.06669 7.56468V5.33324C1.06669 5.19138 1.12269 5.05592 1.22297 4.95618L4.95629 1.22291C5.05603 1.12265 5.19203 1.06665 5.33337 1.06665H8.09817C8.31897 0.447459 8.90561 0 9.60001 0C10.4822 0 11.2 0.717853 11.2 1.59997C11.2 2.48209 10.4822 3.19995 9.60001 3.19995C8.90561 3.19995 8.31897 2.75249 8.09817 2.1333H5.55417L2.13337 5.55404V7.56468C2.75257 7.78548 3.20003 8.37213 3.20003 9.06653C3.20003 9.94863 2.48217 10.6665 1.60003 10.6665C0.717895 10.6665 3.05176e-05 9.94863 3.05176e-05 9.06653C3.05176e-05 8.37213 0.447497 7.78548 1.06669 7.56468ZM9.60001 2.1333C9.89389 2.1333 10.1334 1.89437 10.1334 1.59997C10.1334 1.30558 9.89389 1.06665 9.60001 1.06665C9.30614 1.06665 9.06672 1.30558 9.06672 1.59997C9.06672 1.89437 9.30614 2.1333 9.60001 2.1333ZM1.60003 9.59983C1.89389 9.59983 2.13337 9.36093 2.13337 9.06653C2.13337 8.77213 1.89389 8.53318 1.60003 8.53318C1.30617 8.53318 1.06669 8.77213 1.06669 9.06653C1.06669 9.36093 1.30617 9.59983 1.60003 9.59983Z" fill="#00B2FF"/>
<path d="M8.53283 28.8982V21.2348C7.91413 21.014 7.46671 20.4274 7.46671 19.733C7.46671 18.8509 8.18455 18.133 9.06671 18.133C9.76111 18.133 10.3478 18.5805 10.5686 19.1997H16.0982C16.319 18.5805 16.9056 18.133 17.6 18.133C18.2944 18.133 18.8811 18.5805 19.1019 19.1997H22.1792L24.1605 17.2184C24.0603 17.0098 24 16.7794 24 16.533C24 15.651 24.7179 14.9331 25.6 14.9331C26.4822 14.9331 27.2 15.651 27.2 16.533C27.2 17.4152 26.4822 18.133 25.6 18.133C25.3536 18.133 25.1232 18.0728 24.9147 17.9725L22.7771 20.1101C22.6774 20.2103 22.5413 20.2663 22.4 20.2663H19.1019C18.8811 20.8855 18.2944 21.333 17.6 21.333C16.9056 21.333 16.319 20.8855 16.0982 20.2663H10.568C10.4069 20.7181 10.0512 21.0738 9.59948 21.2348V28.8982C10.2187 29.119 10.6661 29.7056 10.6661 30.4C10.6661 31.2821 9.94828 32 9.06613 32C8.18403 32 7.46613 31.2821 7.46613 30.4C7.46613 29.7056 7.9136 29.119 8.53283 28.8982ZM25.6 17.0664C25.8939 17.0664 26.1334 16.8274 26.1334 16.533C26.1334 16.2386 25.8939 15.9998 25.6 15.9998C25.3061 15.9998 25.0667 16.2386 25.0667 16.533C25.0667 16.8274 25.3061 17.0664 25.6 17.0664ZM17.6 20.2663C17.8939 20.2663 18.1334 20.0274 18.1334 19.733C18.1334 19.4386 17.8939 19.1997 17.6 19.1997C17.3061 19.1997 17.0667 19.4386 17.0667 19.733C17.0667 20.0274 17.3061 20.2663 17.6 20.2663ZM9.06671 30.9328C9.36053 30.9328 9.6 30.6939 9.6 30.3995C9.6 30.1051 9.36053 29.8662 9.06671 29.8662C8.77283 29.8662 8.53335 30.1051 8.53335 30.3995C8.53335 30.6939 8.77283 30.9328 9.06671 30.9328ZM9.06671 20.2663C9.36053 20.2663 9.6 20.0274 9.6 19.733C9.6 19.4386 9.36053 19.1997 9.06671 19.1997C8.77283 19.1997 8.53335 19.4386 8.53335 19.733C8.53335 20.0274 8.77283 20.2663 9.06671 20.2663Z" fill="#00B2FF"/>
<path d="M11.2 10.7646V9.06653C11.2 8.92463 11.256 8.78918 11.3563 8.68945L17.7605 2.28529C17.6603 2.07677 17.6 1.84637 17.6 1.59997C17.6 0.717853 18.3179 0 19.2 0C19.8944 0 20.4811 0.447459 20.7019 1.06665H22.9334C23.2278 1.06665 23.4667 1.30505 23.4667 1.59997V2.97915L25.448 4.96045C25.6566 4.86018 25.887 4.79992 26.1334 4.79992C27.0155 4.79992 27.7334 5.51778 27.7334 6.39988C27.7334 7.28204 27.0155 7.99988 26.1334 7.99988C25.2512 7.99988 24.5334 7.28204 24.5334 6.39988C24.5334 6.15348 24.5936 5.92308 24.6939 5.71457L22.5563 3.57701C22.456 3.47728 22.4 3.34181 22.4 3.19995V2.1333H20.7019C20.4811 2.75249 19.8944 3.19995 19.2 3.19995C18.9536 3.19995 18.7232 3.13968 18.5147 3.03942L12.2667 9.28733V10.7646C12.8859 10.9854 13.3334 11.5721 13.3334 12.2665C13.3334 13.1486 12.6155 13.8664 11.7334 13.8664C10.8512 13.8664 10.1334 13.1486 10.1334 12.2665C10.1334 11.5721 10.5808 10.9854 11.2 10.7646ZM26.1334 6.93324C26.4272 6.93324 26.6667 6.69428 26.6667 6.39988C26.6667 6.10548 26.4272 5.86659 26.1334 5.86659C25.8395 5.86659 25.6 6.10548 25.6 6.39988C25.6 6.69428 25.8395 6.93324 26.1334 6.93324ZM19.2 2.1333C19.4939 2.1333 19.7334 1.89437 19.7334 1.59997C19.7334 1.30558 19.4939 1.06665 19.2 1.06665C18.9061 1.06665 18.6667 1.30558 18.6667 1.59997C18.6667 1.89437 18.9061 2.1333 19.2 2.1333ZM11.7334 12.7998C12.0272 12.7998 12.2667 12.5609 12.2667 12.2665C12.2667 11.9721 12.0272 11.7331 11.7334 11.7331C11.4395 11.7331 11.2 11.9721 11.2 12.2665C11.2 12.5609 11.4395 12.7998 11.7334 12.7998Z" fill="#00B2FF"/>
<path d="M12.8 14.9331C13.4944 14.9331 14.0811 15.3805 14.3019 15.9997H20.5792L23.6229 12.956C23.7227 12.8558 23.8587 12.7998 24 12.7998H29.6459L30.9334 11.5123V7.15404L26.8187 3.03942C26.6102 3.13968 26.3798 3.19995 26.1334 3.19995C25.2512 3.19995 24.5334 2.48209 24.5334 1.59997C24.5334 0.717853 25.2512 0 26.1334 0C27.0155 0 27.7334 0.717853 27.7334 1.59997C27.7334 1.84637 27.6731 2.07677 27.5728 2.28529L31.8437 6.55616C31.944 6.65588 32 6.79133 32 6.93324V11.7331C32 11.875 31.944 12.0105 31.8437 12.1102L30.2437 13.7102C30.144 13.8104 30.008 13.8664 29.8667 13.8664H24.2208L21.1771 16.9101C21.0774 17.0104 20.9413 17.0664 20.8 17.0664H14.3019C14.0811 17.6856 13.4944 18.133 12.8 18.133C11.9179 18.133 11.2 17.4152 11.2 16.5331C11.2 15.651 11.9179 14.9331 12.8 14.9331ZM26.1334 1.06665C25.8395 1.06665 25.6 1.30558 25.6 1.59997C25.6 1.89437 25.8395 2.1333 26.1334 2.1333C26.4272 2.1333 26.6667 1.89437 26.6667 1.59997C26.6667 1.30558 26.4272 1.06665 26.1334 1.06665ZM12.8 17.0664C13.0939 17.0664 13.3334 16.8275 13.3334 16.5331C13.3334 16.2387 13.0939 15.9997 12.8 15.9997C12.5061 15.9997 12.2667 16.2387 12.2667 16.5331C12.2667 16.8275 12.5061 17.0664 12.8 17.0664Z" fill="#00B2FF"/>
<path d="M1.6 12.7998C1.8464 12.7998 2.0768 12.8601 2.28533 12.9603L4.26666 10.979V7.90174C3.64746 7.68094 3.2 7.09429 3.2 6.39989C3.2 5.51779 3.91786 4.79993 4.8 4.79993C5.68213 4.79993 6.39999 5.51779 6.39999 6.39989C6.39999 7.09429 5.95252 7.68094 5.33333 7.90174V11.1998C5.33333 11.3417 5.27733 11.4771 5.17706 11.5769L3.03947 13.7145C3.13973 13.923 3.2 14.1534 3.2 14.3998C3.2 15.0942 2.75253 15.6808 2.13333 15.9016V16.3123L6.24372 20.4226C6.34402 20.5223 6.39999 20.6578 6.39999 20.7997V21.4311C7.01922 21.6519 7.46664 22.2386 7.46664 22.933C7.46664 23.6274 7.01922 24.214 6.39999 24.4348V25.6982C7.01922 25.919 7.46664 26.5057 7.46664 27.2001C7.46664 28.0822 6.74879 28.8001 5.86664 28.8001C4.98453 28.8001 4.26666 28.0822 4.26666 27.2001C4.26666 26.5057 4.71413 25.919 5.33333 25.6982V24.4348C4.71413 24.214 4.26666 23.6274 4.26666 22.933C4.26666 22.2386 4.71413 21.6519 5.33333 21.4311V21.0205L1.22293 16.9101C1.12266 16.8104 1.06666 16.6749 1.06666 16.5331V15.9016C0.447466 15.6808 0 15.0942 0 14.3998C0 13.5176 0.717864 12.7998 1.6 12.7998ZM4.8 6.93324C5.09386 6.93324 5.33333 6.69429 5.33333 6.39989C5.33333 6.10549 5.09386 5.8666 4.8 5.8666C4.50613 5.8666 4.26666 6.10549 4.26666 6.39989C4.26666 6.69429 4.50613 6.93324 4.8 6.93324ZM5.86664 27.7329C6.16052 27.7329 6.39999 27.4939 6.39999 27.1995C6.39999 26.9051 6.16052 26.6662 5.86664 26.6662C5.5728 26.6662 5.33333 26.9051 5.33333 27.1995C5.33333 27.4939 5.5728 27.7329 5.86664 27.7329ZM5.86664 23.4663C6.16052 23.4663 6.39999 23.2274 6.39999 22.933C6.39999 22.6386 6.16052 22.3997 5.86664 22.3997C5.5728 22.3997 5.33333 22.6386 5.33333 22.933C5.33333 23.2274 5.5728 23.4663 5.86664 23.4663ZM1.6 14.9331C1.89386 14.9331 2.13333 14.6942 2.13333 14.3998C2.13333 14.1054 1.89386 13.8664 1.6 13.8664C1.30613 13.8664 1.06666 14.1054 1.06666 14.3998C1.06666 14.6942 1.30613 14.9331 1.6 14.9331Z" fill="#00B2FF"/>
</g>
<defs>
<clipPath id="clip0_29406_2">
<rect width="32" height="32" fill="white"/>
</clipPath>
</defs>
</svg>
